<?xml version="1.0" encoding="utf-8"?>
<!-- Generator: Adobe Illustrator 16.0.0, SVG Export Plug-In . SVG Version: 6.00 Build 0)  -->
<!DOCTYPE svg PUBLIC "-//W3C//DTD SVG 1.1//EN" "http://www.w3.org/Graphics/SVG/1.1/DTD/svg11.dtd">
<svg version="1.1"
	 id="svg3069" xmlns:dc="http://purl.org/dc/elements/1.1/" xmlns:cc="http://creativecommons.org/ns#" xmlns:rdf="http://www.w3.org/1999/02/22-rdf-syntax-ns#" xmlns:svg="http://www.w3.org/2000/svg"
	 xmlns="http://www.w3.org/2000/svg" xmlns:xlink="http://www.w3.org/1999/xlink" x="0px" y="0px" width="600px" height="525px"
	 viewBox="0 0 600 525" enable-background="new 0 0 600 525" xml:space="preserve">
<path id="sign_border" d="M597.6,499.6L313.8,8c-2.9-5-8.2-8-13.9-8C294.2,0,288.9,3.1,286,8L2.2,499.6c-2.9,5-2.9,11.1,0,16
	c2.899,5,8.199,8,13.899,8h567.6c5.7,0,11-3.101,13.9-8C600.5,510.6,600.5,504.5,597.6,499.6L597.6,499.6z"/>
<polygon id="polygon7" fill="#FF0000" points="44,491.525 300,50.037 556,491.525 "/>
<polygon id="polygon7_1_" display="none" fill="#F6BD16" points="44,491.525 300,50.037 556,491.525 "/>
<path id="path1995" stroke="#000000" stroke-width="0.6251" stroke-linecap="square" stroke-opacity="0.4" d="M337.892,434.632
	c0,20.927-16.965,37.892-37.892,37.892c-20.928,0-37.893-16.965-37.893-37.892c0-20.928,16.965-37.893,37.893-37.893
	C320.927,396.739,337.892,413.704,337.892,434.632L337.892,434.632z"/>
<path id="rect1997" stroke="#000000" stroke-width="0.8858" stroke-linecap="square" d="M300,168.6
	c-20.647,0-37.268,16.974-37.268,38.057l11.02,133.313c2.104,17.245,3.901,27.015,11.019,31.609
	c4.647,2.117,9.795,3.322,15.229,3.322c5.408,0,10.533-1.191,15.163-3.289c7.157-4.582,8.976-14.359,11.085-31.643l11.019-133.313
	C337.267,185.574,320.647,168.6,300,168.6L300,168.6z"/>
</svg>
